<?xml version="1.0" encoding="UTF-8" standalone="no"?>
<svg xmlns:dc="http://purl.org/dc/elements/1.1/" xmlns:cc="http://creativecommons.org/ns#" xmlns:rdf="http://www.w3.org/1999/02/22-rdf-syntax-ns#" xmlns:svg="http://www.w3.org/2000/svg" xmlns="http://www.w3.org/2000/svg" viewBox="0 0 464.84 488.42667" height="100" width="95" xml:space="preserve" id="svg2" version="1.1"><metadata id="metadata8"><rdf:RDF><cc:Work rdf:about=""><dc:format>image/svg+xml</dc:format><dc:type rdf:resource="http://purl.org/dc/dcmitype/StillImage"/></cc:Work></rdf:RDF></metadata><defs id="defs6"/><g transform="matrix(1.3333333,0,0,-1.3333333,0,488.42667)" id="g10"><g transform="scale(0.1)" id="g12"><path id="path14" style="fill:#abd91a;fill-opacity:1;fill-rule:nonzero;stroke:none" d="M 1033.61,4.55078 C 1051.82,1.53125 1069.76,0 1087.47,0 c 17.7,0 35.66,1.53125 53.86,4.55078 V 210.141 c 0,21.25 2.28,38.437 6.83,51.578 4.55,13.172 10.49,23.402 17.83,30.722 7.32,7.348 15.55,12.27 24.65,14.809 9.11,2.52 17.95,3.789 26.55,3.789 20.74,0 35.28,-7.348 43.62,-21.988 8.35,-14.672 12.52,-35.672 12.52,-62.973 V 4.55078 C 1291.54,1.53125 1309.48,0 1327.19,0 c 17.7,0 35.66,1.53125 53.86,4.55078 V 254.91 c 0,52.09 -11.26,90.27 -33.75,114.551 -22.51,24.269 -56.02,36.398 -100.52,36.398 -14.16,0 -27.06,-1.89 -38.69,-5.679 -11.64,-3.809 -22.13,-8.731 -31.48,-14.809 -9.37,-6.051 -17.58,-12.891 -24.66,-20.461 -7.08,-7.601 -13.15,-15.18 -18.2,-22.781 -0.51,3.543 -1.14,7.851 -1.9,12.91 -0.76,5.043 -1.65,10.242 -2.65,15.551 -1.02,5.308 -2.16,10.351 -3.42,15.172 -1.27,4.808 -2.65,8.457 -4.17,11 -7.09,1.519 -13.92,2.66 -20.48,3.418 -6.58,0.761 -14.17,1.129 -22.76,1.129 -8.61,0 -16.44,-0.368 -23.52,-1.129 -7.09,-0.758 -14.16,-1.899 -21.24,-3.418 z m 443.78,-0.76172 c 9.1,-1.5 18.08,-2.51953 26.93,-3.027341 C 1513.16,0.28125 1521.89,0 1530.49,0 c 8.6,0 17.45,0.28125 26.56,0.761719 9.1,0.507811 18.2,1.527341 27.31,3.027341 V 210.141 c 0,21.25 2.39,38.437 7.2,51.578 4.8,13.172 10.87,23.402 18.21,30.722 7.31,7.348 15.54,12.27 24.63,14.809 9.1,2.52 17.93,3.789 26.54,3.789 20.7,0 35.35,-7.348 43.95,-21.988 8.57,-14.672 12.87,-35.672 12.87,-62.973 V 3.78906 c 9.11,-1.5 18.21,-2.51953 27.31,-3.027341 C 1754.17,0.28125 1763.02,0 1771.62,0 c 8.6,0 17.45,0.28125 26.55,0.761719 9.11,0.507811 18.21,1.527341 27.31,3.027341 V 254.91 c 0,52.09 -11.27,90.27 -33.75,114.551 -22.52,24.269 -55.51,36.398 -98.97,36.398 -15.67,0 -29.56,-2.027 -41.7,-6.05 -12.11,-4.059 -22.47,-9.008 -31.06,-14.809 -8.6,-5.82 -15.8,-11.871 -21.61,-18.199 -5.82,-6.332 -10.5,-11.762 -14.03,-16.313 v 208.614 c -9.11,1.527 -18.21,2.519 -27.31,3.027 -9.11,0.512 -17.96,0.762 -26.56,0.762 -8.6,0 -17.44,-0.25 -26.55,-0.762 -9.1,-0.508 -17.96,-1.5 -26.55,-3.027 z m 445.94,0.76172 C 1941.55,1.53125 1959.5,0 1977.2,0 c 17.7,0 35.66,1.53125 53.87,4.55078 V 210.141 c 0,21.25 2.01,38.437 6.07,51.578 4.04,13.172 9.48,23.402 16.31,30.722 6.82,7.348 14.53,12.27 23.13,14.809 8.59,2.52 17.18,3.789 25.8,3.789 20.72,0 34.51,-7.348 41.34,-21.988 6.82,-14.672 10.24,-35.672 10.24,-62.973 V 4.55078 C 2172.16,1.53125 2190.11,0 2207.82,0 c 17.7,0 35.65,1.53125 53.87,4.55078 V 216.211 c 0,19.73 2.13,35.789 6.44,48.168 4.3,12.383 9.87,21.992 16.69,28.832 6.83,6.828 14.41,11.5 22.75,14.039 8.36,2.52 16.82,3.789 25.43,3.789 20.73,0 34.51,-7.348 41.33,-21.988 6.84,-14.672 10.25,-35.672 10.25,-62.973 V 4.55078 C 2402.79,1.53125 2420.73,0 2438.43,0 c 17.71,0 35.67,1.53125 53.87,4.55078 V 254.141 c 0,52.089 -10.51,90.39 -31.48,114.929 -20.99,24.532 -53.74,36.789 -98.25,36.789 -28.32,0 -51.7,-6.949 -70.16,-20.859 -18.47,-13.898 -32.75,-30.211 -42.86,-48.922 -17.2,46.524 -56.4,69.781 -117.59,69.781 -14.16,0 -26.93,-1.89 -38.31,-5.679 -11.39,-3.809 -21.62,-8.731 -30.73,-14.809 -9.1,-6.051 -16.95,-12.891 -23.51,-20.461 -6.58,-7.601 -11.9,-15.18 -15.94,-22.781 -0.51,3.543 -1.13,7.851 -1.89,12.91 -0.75,5.043 -1.64,10.242 -2.66,15.551 -1.01,5.308 -2.15,10.351 -3.4,15.172 -1.27,4.808 -2.66,8.457 -4.18,11 -7.09,1.519 -13.91,2.66 -20.49,3.418 -6.58,0.761 -14.16,1.129 -22.75,1.129 -8.6,0 -16.44,-0.368 -23.52,-1.129 -7.08,-0.758 -14.16,-1.899 -21.25,-3.418 V 4.55078"/><path id="path16" style="fill:#196f8f;fill-opacity:1;fill-rule:nonzero;stroke:none" d="m 2374.8,1599.13 c -36.38,-14.84 -65.64,-36.04 -71.15,-83.39 -10.92,-93.67 -29.44,-186.42 -42.27,-279.94 -2.73,-19.78 0.53,-58.96 10.22,-59.47 9.67,-0.51 84.51,77.17 152.98,378.66 8.99,39.59 -12.77,59.25 -49.78,44.14"/><path id="path18" style="fill:#196f8f;fill-opacity:1;fill-rule:nonzero;stroke:none" d="m 2518.28,1611.11 c -30.8,4.93 -43.31,-44.01 -50.49,-73.02 -46.78,-189.08 -98.67,-287.79 -130.76,-336.95 -9.07,-13.85 -3.71,-18.03 2.83,-16.43 19.94,4.88 48.44,32.05 60.43,49.53 73.47,106.99 109.32,197.17 129.35,325.27 1.47,9.39 10.55,48.11 -11.36,51.6"/><path id="path20" style="fill:#196f8f;fill-opacity:1;fill-rule:nonzero;stroke:none" d="m 2033.41,2163.02 c -17.63,-23.91 -43.69,-55.73 -60.56,-62.85 -8.27,-3.49 15.9,32.79 29.37,50.45 69.3,90.87 248.79,411.12 283.55,558.46 21.86,92.68 -40.17,166.56 -133.67,165.22 -41.83,-0.61 -83.61,-8.3 -125.31,-13.5 -41.37,-5.15 -82.62,-11.18 -126.25,-17.16 60.94,27.64 251.23,69.34 320.55,50.87 69.32,-18.49 110.49,-57.56 115,-128.33 9.24,-144.76 -285.04,-579.26 -302.68,-603.16 z M 1846.39,1710.9 c -74.72,18.63 -81.51,51.8 -81.51,51.8 0,0 82.13,-37.53 135.97,-37.53 53.87,0 70.4,9.09 70.4,9.09 0,0 -50.14,-42 -124.86,-23.36 z m -121.53,614.64 c -6.68,6.33 -19.13,27.71 -12.32,59.28 6.8,31.58 52.53,44.05 78.52,43.9 26.01,-0.16 40.05,-16.94 50.83,-32.35 -11.54,-13.85 -33.88,-17.7 -60.06,-31.57 -26.18,-13.85 -37.73,-33.87 -56.97,-39.26 z m -210.89,-818.53 c -14.88,57.08 -21.19,137.1 20.02,178.63 -5.93,-90.02 -4.36,-226.92 80.08,-338.8 -4.06,-2.76 -74.8,63.13 -100.1,160.17 z m -92.06,341.47 c -88.73,-20.87 -212.58,-104.88 -226.76,-107.71 -20.05,-4.01 104.87,90.7 199.84,134.64 94.97,43.93 31.3,216.84 56.05,221.11 33.24,-57.8 67.26,-225.36 -29.13,-248.04 z m -257.95,252.29 c -2.83,12.74 40.4,75.12 82.21,97.78 64.57,35.03 140.01,-16.4 138.74,-23.79 -1.26,-7.38 -16.15,-3.13 -35.98,0.41 -19.85,3.55 -62.93,18.62 -108.43,-6.37 -50.31,-27.64 -72.57,-68.88 -76.54,-68.03 z m 1372.63,-293.58 c -21.36,-39.48 -79.98,-41.17 -108.54,-31.57 -104.16,35 -228.88,147.47 -271.66,181.67 20.41,6.24 90.44,-45.89 128.96,-71.25 38.72,-25.5 80.62,-54.38 136.87,-75 25.14,-9.22 82.09,-12.97 102.13,26.31 -5.18,53.27 -74.63,162.44 -204.63,249.94 83.33,70 219.84,277.95 229.96,527.1 5.1,125.36 -58.78,287.2 -174.96,341.24 -71.67,33.32 -154.2,33.26 -218.3,12.03 -122.75,-40.64 -308.37,-113.12 -375.7,-116.82 -2.39,32.13 0.59,57.05 -6.72,78.46 -24.98,73.18 -132.6,89.64 -192.75,31.35 -43.03,-41.69 -45.93,-90.96 -31.69,-145.79 16.4,-63.27 62.05,-92.1 115.28,-109.71 145.19,-47.98 354.84,-0.18 394.88,12.14 40.04,12.32 64.12,-7.93 55,-46.67 -6.67,-28.34 -32.6,-57.27 -73.33,-56.67 -175.71,2.62 -224.79,-75.92 -255.88,-70.1 -88.35,16.54 -143.73,-45.75 -180.68,-60.46 -36.95,-14.71 -107.91,-21.6 -140.19,-44.68 -32.29,-23.09 -93.89,-95.8 -109.29,-143.2 -68.56,-22 -172.48,-77.02 -203.28,-98.57 -30.81,-21.56 -116.9,-131.07 -136.92,-191.13 -10.95,-32.83 -6.65,-67.28 -25.517,-117.65 -48.473,-129.44 102.327,-151.64 106.297,-157.31 6.19,-8.85 -179.996,5.67 -130.973,155.69 3.914,12.02 6.27,24.29 9.086,35.51 0,0 -147.449,-68.18 -173.109,-161.19 -30.801,-111.65 -182.411,-264.9 -178.579,-274.71 177.219,-454.6 619.165,-776.791 1136.375,-776.791 88.81,0 175.33,9.672 258.71,27.77 0,0 -9.09,166.043 0.02,203.152 44.82,182.979 38.49,307.999 -38.51,461.999 -36.96,65.98 0,138.61 -11.55,223.3 15.51,86.27 111.66,72.39 191.74,161.71 0,0 25.05,-38.45 41.58,-46.19 49.28,-23.1 88.55,-70.86 93.08,-146.38 40.9,34.25 85.89,44.63 130.22,47.81 8.27,3.69 7.37,60.03 11.72,73.9 2.85,9.11 14.39,20.25 23.07,21.2 6.61,0.75 18.7,-11.85 21.48,-20.68 4.37,-13.96 0.8,-54.84 5.96,-68.26 19.7,10.47 46.81,6.78 58.51,1.24 7.09,74.23 5.75,123.51 -8.17,157.26"/><path id="path22" style="fill:#58c2f0;fill-opacity:1;fill-rule:nonzero;stroke:none" d="m 920.273,687.012 c -5.023,5.879 -10.695,11.308 -17.003,16.347 -6.317,5.02 -12.989,9.403 -20.028,13.11 L 778.871,585.301 802.859,780.43 c -5.398,6.172 -10.781,11.39 -16.14,15.648 -4.977,3.961 -10.977,7.793 -18.02,11.524 L 604.492,601.211 c 4.641,-5.582 9.926,-10.723 15.86,-15.43 6.308,-5.019 13.371,-9.703 21.171,-14.043 L 746.121,703.23 721.332,508.25 c 5.211,-6.02 10.68,-11.309 16.426,-15.879 5.363,-4.262 11.461,-8.191 18.301,-11.762 z M 716.449,850.82 c -4.695,7.602 -10.027,14.789 -16,21.602 -5.316,6.058 -11.426,11.918 -18.34,17.578 l -49.629,-23.512 -57.558,65.641 30.051,45.859 c -4.7,7.582 -10.11,14.864 -16.243,21.864 -6.289,7.158 -13.292,14.038 -21,20.618 L 423.824,784.531 c 3.149,-4.722 6.125,-8.941 8.906,-12.672 2.793,-3.75 5.801,-7.461 9.024,-11.109 3.707,-4.262 7.226,-7.988 10.566,-11.238 3.34,-3.262 6.981,-6.563 10.91,-9.942 z m -125.57,-4.218 -104.336,-49.043 63.227,95.921 z m -74.535,250.318 c -1.992,4.51 -4.172,8.86 -6.516,13.02 -2.34,4.16 -4.617,7.99 -6.844,11.51 -2.222,3.51 -4.664,7.03 -7.336,10.56 -2.656,3.52 -5.375,7.02 -8.136,10.47 l -184.449,-116.68 -35.114,55.49 c -6.976,-2.69 -13.886,-6.19 -20.707,-10.51 -6.402,-4.04 -12.308,-8.65 -17.73,-13.8 l 99.039,-156.57 c 6.992,2.68 13.691,6.059 20.094,10.102 6.816,4.316 12.937,9.058 18.347,14.218 l -35.101,55.489 z m -206.985,120.33 c 16.575,6.64 31.172,14.08 43.809,22.32 12.645,8.25 22.434,17.84 29.359,28.79 6.938,10.94 10.703,23.4 11.297,37.35 0.594,13.92 -2.754,29.98 -10.047,48.14 -7.277,18.16 -15.964,32.06 -26.039,41.72 -10.058,9.66 -21.386,16.06 -33.976,19.16 -12.578,3.13 -26.282,3.3 -41.11,0.5 -14.82,-2.78 -30.511,-7.51 -47.082,-14.16 L 98.0313,1345.86 c 1.0507,-4.59 2.3127,-9.02 3.7697,-13.3 1.461,-4.3 3,-8.48 4.64,-12.58 1.551,-3.84 3.262,-7.77 5.129,-11.75 1.871,-4.01 4.051,-8.15 6.551,-12.41 l 126.981,50.98 c 13.847,5.57 25.91,9.8 36.187,12.75 10.281,2.93 19.274,4.18 26.973,3.71 7.699,-0.46 14.172,-2.81 19.418,-7.03 5.25,-4.22 9.66,-10.76 13.211,-19.61 3.55,-8.84 4.91,-16.66 4.082,-23.45 -0.832,-6.8 -3.875,-13.01 -9.106,-18.67 -5.238,-5.67 -12.586,-11 -22.043,-15.98 -9.472,-4.98 -21.125,-10.26 -34.961,-15.8 l -126.984,-50.98 c 1.051,-4.59 2.281,-8.96 3.691,-13.14 1.422,-4.18 2.903,-8.21 4.442,-12.05 1.742,-4.32 3.539,-8.48 5.398,-12.47 1.871,-4 4.008,-8.02 6.422,-12.05 z m 6.039,311.22 c -0.226,4.94 -0.675,9.72 -1.335,14.32 -0.672,4.61 -1.403,8.95 -2.211,13.03 -0.813,4.08 -1.825,8.24 -3.028,12.49 -1.222,4.24 -2.5,8.48 -3.836,12.69 L 86.5742,1537.73 c -1.5859,4.18 -2.8945,8.91 -3.9336,14.18 -2.7109,13.67 -1.3789,25.54 3.9805,35.58 5.3711,10.04 15.6089,16.55 30.7189,19.55 7.68,1.51 14.652,1.27 20.902,-0.72 6.262,-2.02 11.797,-4.85 16.641,-8.49 4.84,-3.66 9.047,-7.63 12.637,-11.89 3.593,-4.28 6.562,-7.93 8.902,-10.95 l 6.027,-7.78 106.785,91.46 c -0.312,9.15 -1.382,18.29 -3.183,27.4 -1.102,5.53 -2.406,10.88 -3.934,16.06 -1.527,5.17 -3.008,10.11 -4.426,14.83 l -96.921,-84.65 -5.168,5.33 c -3.161,3.36 -7.149,6.82 -11.957,10.36 -4.813,3.53 -10.344,6.61 -16.606,9.22 -6.25,2.64 -13.269,4.43 -21.066,5.38 -7.793,0.93 -16.493,0.46 -26.0785,-1.43 -16.0703,-3.18 -28.7031,-8.99 -37.8828,-17.41 -9.1679,-8.43 -15.8008,-18.41 -19.8711,-29.93 -4.0703,-11.54 -6.0429,-23.95 -5.9023,-37.26 0.1523,-13.31 1.5351,-26.56 4.1445,-39.76 2.2383,-11.27 4.6914,-21.44 7.3555,-30.51 2.6719,-9.08 5.6523,-18.76 8.9414,-29.09 z m -46.25,255.42 c 1.29,9.08 1.852,18.14 1.68,27.18 -0.16,8.57 -1.066,17.46 -2.707,26.74 l -114.058,-2.18 -1.68,88.4 114.058,2.17 c 1.297,9.07 1.86,18.13 1.688,27.18 -0.168,8.56 -1.066,17.47 -2.707,26.74 L 1.70703,1975.11 c -1.285155,-9.33 -1.843749,-18.38 -1.67578,-27.19 0.167969,-8.8 1.06641,-17.72 2.70703,-26.73 l 103.43372,1.96 1.672,-88.39 -103.42603,-1.96 c -1.28906,-9.33 -1.85938,-18.39 -1.6875,-27.19 0.16797,-8.8 1.07031,-17.71 2.70703,-26.73 z m 4.192,284.67 c 2.66,8.77 4.582,17.66 5.781,26.62 1.129,8.49 1.594,17.43 1.363,26.84 l -261.4332,34.9 c -2.6875,-9.01 -4.6055,-17.88 -5.7774,-26.61 -1.164,-8.72 -1.6211,-17.68 -1.3632,-26.84 z m -73.246,237.69 c 2.777,3.82 5.586,7.5 8.418,11.04 2.84,3.56 5.98,6.58 9.418,9.09 3.453,2.5 7.328,4.26 11.64,5.29 4.313,0.99 9.301,0.76 14.981,-0.73 11.351,-3 18.679,-9.5 21.992,-19.48 3.305,-9.98 2.996,-22.4 -0.934,-37.3 -2.625,-9.93 -6.089,-19.02 -10.41,-27.22 -4.32,-8.23 -9.801,-16.78 -16.437,-25.64 6.879,-4.6 13.789,-8.83 20.742,-12.68 6.945,-3.87 13.758,-7.05 20.43,-9.57 3.918,5.28 7.429,10.43 10.515,15.44 3.09,5 5.903,10.14 8.434,15.41 2.527,5.27 4.84,10.93 6.937,16.94 2.102,6.03 4.18,12.94 6.243,20.75 4.175,15.84 5.859,30.38 5.054,43.62 -0.793,13.24 -3.656,24.93 -8.566,35.08 -4.906,10.14 -11.758,18.72 -20.528,25.72 -8.781,6.98 -19.199,12.08 -31.261,15.26 -11.582,3.06 -21.711,4.21 -30.379,3.47 -8.672,-0.74 -16.449,-2.93 -23.352,-6.54 -6.898,-3.63 -13.211,-8.61 -18.929,-14.93 -5.711,-6.33 -11.543,-13.52 -17.454,-21.58 l -13.777,-19.12 c -2.348,-3.17 -4.762,-6.33 -7.242,-9.46 -2.469,-3.15 -5.199,-5.84 -8.195,-8.09 -3.004,-2.24 -6.313,-3.78 -9.946,-4.59 -3.625,-0.81 -7.797,-0.59 -12.539,0.66 -5.894,1.56 -10.41,3.88 -13.519,6.99 -3.098,3.09 -5.1605,6.53 -6.18,10.36 -1.0156,3.8 -1.3398,7.86 -0.9492,12.2 0.3828,4.32 1.1015,8.48 2.1601,12.52 1.7539,6.61 3.6131,12.45 5.5701,17.5 1.957,5.04 3.969,9.51 6,13.4 2.043,3.87 4.25,7.47 6.641,10.77 2.379,3.28 4.758,6.52 7.109,9.69 -11.621,9.63 -24.1013,16.98 -37.4412,22.02 -7.0703,-10.53 -13.0703,-20.77 -17.9687,-30.74 -4.9102,-9.96 -8.9492,-20.96 -12.1367,-33.02 -3.4922,-13.24 -5.0547,-25.61 -4.6641,-37.08 0.3828,-11.5 2.711,-21.84 6.9805,-31.07 4.2695,-9.22 10.4609,-17.12 18.5898,-23.68 8.1328,-6.57 18.2266,-11.45 30.2894,-14.64 9.929,-2.61 18.769,-3.62 26.523,-3.02 7.75,0.62 14.758,2.5 21.031,5.66 6.27,3.13 12.075,7.43 17.426,12.85 5.352,5.41 10.621,11.73 15.82,18.96 z m 178.054,179.18 c 2.665,4.17 5.075,8.39 7.235,12.64 2.156,4.26 4.09,8.29 5.777,12.08 1.692,3.8 3.258,7.8 4.719,11.97 1.449,4.17 2.851,8.37 4.195,12.59 l -199.433,88.7 26.687,59.98 c -6.105,4.33 -12.848,8.14 -20.226,11.41 -6.922,3.09 -14.039,5.44 -21.34,7.08 l -75.278,-169.26 c 6.11,-4.32 12.625,-8.02 19.543,-11.1 7.375,-3.28 14.715,-5.74 22.012,-7.38 l 26.691,60 z m 162.594,303.22 c 2.5,15.76 1.367,30.91 -3.371,45.42 -4.738,14.5 -12.641,28.29 -23.711,41.35 -11.066,13.04 -24.672,25.1 -40.816,36.15 -16.145,11.04 -32.414,19.43 -48.789,25.16 -16.383,5.73 -32.235,8.22 -47.575,7.46 -15.335,-0.77 -29.91,-5.18 -43.707,-13.21 -13.804,-8.04 -26.304,-20.23 -37.48,-36.59 -11.191,-16.34 -18.031,-32.4 -20.531,-48.17 -2.5,-15.78 -1.328,-30.96 3.508,-45.53 4.851,-14.58 12.902,-28.46 24.171,-41.65 11.27,-13.2 24.981,-25.32 41.118,-36.38 16.152,-11.04 32.308,-19.36 48.492,-24.96 16.179,-5.58 31.879,-7.97 47.121,-7.13 15.238,0.83 29.758,5.27 43.558,13.32 13.801,8.03 26.293,20.23 37.481,36.58 11.191,16.34 18.031,32.41 20.531,48.18 M 375.879,2769.9 c -50.051,34.25 -64.231,67.22 -42.551,98.91 10.914,15.94 25.223,23.4 42.91,22.42 17.692,-1.01 39.055,-10.06 64.075,-27.18 50.058,-34.27 64.378,-67.03 42.968,-98.31 -21.547,-31.48 -57.34,-30.11 -107.402,4.16 m 257.391,130.11 c 3.992,2.91 7.73,5.92 11.21,9 3.469,3.1 6.692,6.1 9.653,9.03 2.957,2.92 5.867,6.06 8.75,9.41 2.871,3.36 5.695,6.76 8.488,10.19 l -156.508,158.39 c 2.61,3.61 5.828,7.32 9.657,11.1 9.921,9.79 20.539,15.22 31.871,16.28 11.339,1.06 22.418,-3.89 33.25,-14.86 5.5,-5.57 9.136,-11.51 10.922,-17.82 1.765,-6.34 2.468,-12.51 2.089,-18.56 -0.382,-6.06 -1.375,-11.76 -2.949,-17.11 -1.594,-5.35 -3.004,-9.85 -4.242,-13.46 l -3.16,-9.33 135.172,-38.67 c 7.461,5.31 14.5,11.23 21.117,17.78 4.004,3.95 7.742,7.98 11.219,12.12 3.484,4.13 6.793,8.09 9.933,11.87 l -124.051,34.21 1.598,7.24 c 1.07,4.49 1.754,9.73 2.043,15.69 0.297,5.95 -0.184,12.26 -1.441,18.93 -1.258,6.67 -3.637,13.52 -7.137,20.55 -3.512,7.02 -8.691,14.01 -15.574,20.97 -11.508,11.66 -23.321,18.99 -35.399,22 -12.09,3.01 -24.066,3.04 -35.929,0.09 -11.872,-2.96 -23.309,-8.17 -34.332,-15.63 -11.028,-7.45 -21.329,-15.9 -30.887,-25.36 -8.184,-8.08 -15.32,-15.73 -21.41,-22.95 -6.09,-7.25 -12.539,-15.07 -19.34,-23.5 z m 189.668,176.54 c 8.101,4.29 15.761,9.17 22.976,14.63 6.824,5.17 13.496,11.13 20.02,17.93 l -159.223,210.27 c -8.297,-4.45 -15.949,-9.32 -22.973,-14.65 -7.019,-5.31 -13.687,-11.28 -20.015,-17.92 z m 118.632,218.74 c 4.668,0.67 9.258,1.25 13.789,1.7 4.524,0.46 8.883,0.32 13.082,-0.38 4.2,-0.72 8.168,-2.27 11.903,-4.64 3.738,-2.38 7.058,-6.12 9.949,-11.22 5.785,-10.21 6.277,-19.99 1.449,-29.34 -4.824,-9.34 -13.929,-17.8 -27.344,-25.41 -8.929,-5.06 -17.843,-8.92 -26.738,-11.58 -8.898,-2.65 -18.836,-4.71 -29.828,-6.15 1.52,-8.14 3.328,-16.04 5.43,-23.7 2.09,-7.68 4.582,-14.78 7.429,-21.3 6.532,0.89 12.661,1.96 18.403,3.26 5.726,1.28 11.367,2.86 16.918,4.74 5.543,1.87 11.191,4.18 16.968,6.88 5.77,2.72 12.172,6.06 19.192,10.04 14.248,8.08 25.828,17.03 34.738,26.87 8.9,9.82 15.26,20.04 19.1,30.65 3.82,10.6 5.17,21.48 4.04,32.65 -1.13,11.17 -4.77,22.18 -10.92,33.03 -5.91,10.41 -12.16,18.47 -18.76,24.15 -6.59,5.68 -13.59,9.72 -20.999,12.12 -7.406,2.41 -15.383,3.45 -23.902,3.12 -8.528,-0.34 -17.739,-1.2 -27.625,-2.61 l -23.313,-3.5 c -3.91,-0.54 -7.859,-1.02 -11.832,-1.44 -3.976,-0.43 -7.804,-0.36 -11.508,0.22 -3.703,0.57 -7.109,1.87 -10.23,3.9 -3.117,2.03 -5.879,5.17 -8.289,9.42 -3.02,5.32 -4.504,10.17 -4.457,14.55 0.047,4.39 1.066,8.27 3.086,11.66 2.012,3.4 4.699,6.47 8.058,9.22 3.36,2.74 6.852,5.13 10.469,7.19 5.953,3.38 11.422,6.13 16.402,8.25 4.981,2.11 9.583,3.8 13.79,5.07 4.199,1.25 8.308,2.19 12.343,2.79 4.02,0.58 7.981,1.15 11.899,1.69 -1.219,15.04 -4.692,29.1 -10.418,42.15 -12.473,-2.28 -23.996,-5.15 -34.543,-8.61 -10.551,-3.46 -21.25,-8.25 -32.098,-14.41 -11.922,-6.75 -21.844,-14.27 -29.793,-22.57 -7.937,-8.3 -13.719,-17.21 -17.328,-26.7 -3.613,-9.5 -4.93,-19.45 -3.949,-29.86 0.976,-10.42 4.547,-21.03 10.699,-31.88 5.066,-8.95 10.531,-15.97 16.383,-21.08 5.848,-5.12 12.098,-8.82 18.726,-11.1 6.637,-2.28 13.762,-3.44 21.379,-3.49 7.614,-0.04 15.821,0.6 24.618,1.95 z m 330.07,72.76 c -6.03,-3.46 -13.31,-6.73 -21.82,-9.77 -47.65,-17.12 -81.55,2.41 -101.72,58.56 -10.17,28.31 -11.92,51.79 -5.23,70.43 6.69,18.64 21.08,31.94 43.18,39.87 8.51,3.05 16.09,5.13 22.71,6.21 6.63,1.07 14.46,1.69 23.52,1.81 0.36,7.68 0.51,15.2 0.46,22.58 -0.06,7.39 -1.09,14.62 -3.11,21.68 -12.39,0.5 -23.49,-0.24 -33.31,-2.21 -9.82,-1.97 -20.25,-4.94 -31.3,-8.9 -18.64,-6.69 -34.11,-15.89 -46.41,-27.58 -12.3,-11.7 -21.39,-25.1 -27.27,-40.21 -5.88,-15.1 -8.63,-31.48 -8.26,-49.16 0.36,-17.66 3.86,-35.7 10.47,-54.11 6.61,-18.41 15.26,-34.54 25.95,-48.36 10.68,-13.84 23.08,-24.66 37.18,-32.46 14.1,-7.78 29.66,-12.2 46.66,-13.24 17,-1.05 35.29,1.95 54.85,8.98 11.05,3.97 21.1,8.35 30.16,13.17 9.05,4.8 18.78,11.54 29.18,20.22 -3.41,6.58 -7.31,12.9 -11.7,19 -4.39,6.07 -9.25,11.8 -14.55,17.17 -7.07,-5.65 -13.61,-10.21 -19.64,-13.68 m 117.74,-6.92 c 9.16,-0.03 18.22,0.67 27.16,2.09 8.45,1.35 17.14,3.48 26.09,6.39 l -17.94,112.66 87.31,13.91 17.94,-112.68 c 9.16,-0.02 18.22,0.68 27.16,2.11 8.45,1.34 17.14,3.47 26.09,6.38 l -41.47,260.47 c -9.41,-0.01 -18.46,-0.71 -27.16,-2.09 -8.69,-1.4 -17.39,-3.53 -26.1,-6.4 l 16.27,-102.16 -87.3,-13.89 -16.27,102.16 c -9.41,-0.01 -18.46,-0.72 -27.16,-2.1 -8.69,-1.38 -17.39,-3.51 -26.1,-6.38 z m 282.27,38.38 152.19,-0.98 c 1.51,7.34 2.29,15.03 2.34,23.11 0.05,7.57 -0.64,15.04 -2.06,22.39 l -98.68,0.61 0.45,69.7 76.29,-0.48 c 1.52,7.57 2.31,15.27 2.37,23.1 0.03,7.34 -0.65,14.92 -2.07,22.75 l -76.3,0.48 0.36,57.24 96.11,-0.61 c 1.51,7.33 2.3,15.02 2.35,23.09 0.03,7.58 -0.64,15.05 -2.06,22.39 l -149.62,0.95 z m 322.25,94.13 c 4.04,-2.43 7.96,-4.91 11.75,-7.42 3.78,-2.51 7.08,-5.38 9.87,-8.59 2.8,-3.22 4.89,-6.92 6.27,-11.14 1.39,-4.21 1.58,-9.2 0.59,-14.97 -1.99,-11.57 -7.81,-19.45 -17.46,-23.61 -9.66,-4.17 -22.07,-4.95 -37.26,-2.35 -10.13,1.75 -19.47,4.42 -28.04,7.99 -8.55,3.59 -17.54,8.29 -26.96,14.14 -3.98,-7.25 -7.59,-14.52 -10.82,-21.77 -3.24,-7.26 -5.82,-14.32 -7.74,-21.19 5.6,-3.44 11.03,-6.49 16.29,-9.14 5.25,-2.63 10.62,-4.98 16.1,-7.05 5.47,-2.06 11.3,-3.85 17.49,-5.43 6.18,-1.55 13.24,-3.01 21.2,-4.38 16.14,-2.78 30.77,-3.19 43.9,-1.23 13.12,1.96 24.51,5.83 34.2,11.61 9.66,5.77 17.61,13.34 23.82,22.69 6.2,9.36 10.36,20.18 12.47,32.47 2.04,11.8 2.3,22 0.8,30.58 -1.51,8.57 -4.36,16.13 -8.56,22.69 -4.22,6.55 -9.73,12.4 -16.52,17.55 -6.82,5.12 -14.49,10.3 -23.02,15.5 l -20.26,12.05 c -3.37,2.06 -6.72,4.18 -10.07,6.38 -3.34,2.19 -6.26,4.67 -8.76,7.46 -2.5,2.79 -4.32,5.96 -5.44,9.5 -1.13,3.55 -1.28,7.73 -0.44,12.54 1.03,6.03 2.96,10.72 5.76,14.09 2.81,3.35 6.08,5.71 9.79,7.07 3.7,1.34 7.71,2.01 12.07,2.01 4.33,0 8.55,-0.36 12.65,-1.06 6.74,-1.16 12.73,-2.5 17.93,-4.02 5.19,-1.51 9.82,-3.13 13.87,-4.81 4.04,-1.69 7.81,-3.57 11.31,-5.66 3.49,-2.09 6.91,-4.17 10.27,-6.24 8.6,12.41 14.82,25.49 18.67,39.22 -11.1,6.12 -21.83,11.2 -32.18,15.22 -10.36,4.02 -21.67,7.07 -33.97,9.2 -13.49,2.32 -25.94,2.79 -37.35,1.4 -11.4,-1.39 -21.52,-4.61 -30.32,-9.67 -8.82,-5.07 -16.14,-11.92 -21.98,-20.6 -5.84,-8.67 -9.81,-19.15 -11.92,-31.44 -1.75,-10.14 -1.97,-19.02 -0.69,-26.69 1.29,-7.66 3.77,-14.48 7.46,-20.46 3.68,-5.97 8.45,-11.37 14.33,-16.23 5.86,-4.86 12.62,-9.56 20.28,-14.1 z m 366.19,-219.66 c 6.44,-5.46 13.04,-10.16 19.81,-14.09 6.35,-3.7 13.25,-6.88 20.75,-9.55 l 95.91,154.27 -20.65,-134.47 c 2.58,-2.34 5.19,-4.43 7.82,-6.25 2.61,-1.81 5.3,-3.51 8.04,-5.11 3.18,-1.86 6.44,-3.55 9.79,-5.07 3.35,-1.53 6.63,-2.95 9.84,-4.25 l 108.72,80.13 -84.47,-157.97 c 6.23,-5.33 12.94,-10.09 20.13,-14.29 7.18,-4.19 15.15,-7.99 23.92,-11.39 l 122.08,234.13 c -6.66,5.57 -14,10.71 -22.02,15.39 -8.04,4.68 -15.69,8.3 -22.98,10.85 l -130.01,-99.15 23.85,161.05 c -7.29,5.95 -15.06,11.32 -23.29,16.13 -7.82,4.55 -16.32,8.66 -25.52,12.32 z m 363.6,-89.27 c -11.93,-13.28 -21.75,-26.4 -29.45,-39.37 -7.7,-12.97 -12.25,-25.9 -13.63,-38.78 -1.39,-12.89 0.72,-25.73 6.35,-38.51 5.62,-12.75 15.71,-25.68 30.27,-38.76 14.55,-13.07 28.48,-21.71 41.78,-25.94 13.3,-4.22 26.29,-4.96 38.96,-2.19 12.66,2.75 25.02,8.65 37.09,17.7 12.07,9.06 24.09,20.22 36.01,33.5 l 99.01,110.27 c -2.97,3.65 -6.04,7.08 -9.24,10.28 -3.22,3.2 -6.45,6.28 -9.72,9.22 -3.11,2.78 -6.36,5.53 -9.81,8.31 -3.43,2.75 -7.21,5.5 -11.34,8.22 l -91.42,-101.8 c -9.97,-11.11 -18.92,-20.24 -26.85,-27.42 -7.93,-7.19 -15.45,-12.26 -22.55,-15.24 -7.12,-2.98 -13.96,-3.74 -20.54,-2.28 -6.57,1.47 -13.4,5.38 -20.5,11.76 -7.09,6.38 -11.78,12.78 -14.02,19.25 -2.26,6.45 -2.29,13.39 -0.08,20.78 2.2,7.39 6.44,15.41 12.73,24.05 6.29,8.65 14.42,18.54 24.39,29.64 l 91.43,101.8 c -2.97,3.65 -6.01,7.03 -9.12,10.16 -3.12,3.12 -6.23,6.07 -9.31,8.85 -3.46,3.11 -6.92,6.02 -10.34,8.8 -3.44,2.74 -7.14,5.42 -11.08,7.97 z m 261.56,-264.31 c 1.35,-4.53 2.57,-9 3.67,-13.4 1.09,-4.41 1.6,-8.74 1.5,-13.01 -0.1,-4.26 -1.06,-8.4 -2.88,-12.44 -1.81,-4.04 -5.04,-7.86 -9.67,-11.46 -9.27,-7.2 -18.88,-9.09 -28.82,-5.65 -9.94,3.43 -19.63,11.22 -29.08,23.4 -6.29,8.12 -11.4,16.39 -15.3,24.8 -3.91,8.42 -7.37,17.97 -10.39,28.63 -7.83,-2.67 -15.39,-5.6 -22.67,-8.77 -7.28,-3.19 -13.95,-6.66 -20,-10.42 1.81,-6.33 3.77,-12.25 5.88,-17.74 2.09,-5.49 4.46,-10.84 7.1,-16.06 2.67,-5.22 5.75,-10.48 9.26,-15.8 3.52,-5.32 7.75,-11.18 12.7,-17.55 10.04,-12.94 20.56,-23.12 31.58,-30.53 11,-7.39 22.03,-12.21 33.07,-14.48 11.05,-2.27 22.01,-2.03 32.9,0.69 10.89,2.73 21.26,7.91 31.11,15.56 9.47,7.35 16.53,14.69 21.21,22.03 4.67,7.35 7.66,14.85 8.98,22.53 1.3,7.68 1.19,15.71 -0.37,24.09 -1.55,8.4 -3.74,17.39 -6.53,26.98 l -6.83,22.56 c -1.09,3.79 -2.13,7.63 -3.13,11.5 -1,3.87 -1.47,7.67 -1.44,11.42 0.03,3.74 0.83,7.31 2.4,10.69 1.56,3.37 4.26,6.56 8.13,9.56 4.83,3.75 9.42,5.91 13.76,6.5 4.34,0.59 8.34,0.13 11.98,-1.39 3.65,-1.49 7.06,-3.71 10.28,-6.64 3.2,-2.94 6.08,-6.04 8.63,-9.32 4.19,-5.41 7.7,-10.43 10.52,-15.05 2.81,-4.63 5.14,-8.94 7,-12.91 1.85,-3.99 3.36,-7.92 4.53,-11.82 1.16,-3.89 2.29,-7.73 3.38,-11.53 14.71,3.37 28.12,8.83 40.22,16.36 -4.05,12.02 -8.55,23 -13.48,32.95 -4.94,9.95 -11.23,19.85 -18.88,29.7 -8.4,10.81 -17.27,19.55 -26.63,26.23 -9.36,6.66 -19,11.11 -28.92,13.3 -9.91,2.22 -19.95,2.09 -30.1,-0.38 -10.16,-2.47 -20.17,-7.53 -30.02,-15.17 -8.11,-6.3 -14.28,-12.72 -18.5,-19.24 -4.23,-6.52 -6.99,-13.23 -8.29,-20.14 -1.31,-6.88 -1.43,-14.1 -0.37,-21.65 1.05,-7.54 2.87,-15.56 5.46,-24.08 z m 10.58,-204.45 73.49,-133.33 c 7.13,2.26 14.23,5.33 21.3,9.22 6.63,3.66 12.82,7.9 18.53,12.74 l -47.62,86.42 61.04,33.64 36.83,-66.83 c 7.34,2.37 14.44,5.45 21.3,9.23 6.41,3.53 12.71,7.84 18.86,12.91 l -36.83,66.82 50.12,27.61 46.39,-84.17 c 7.13,2.26 14.23,5.34 21.3,9.23 6.63,3.65 12.81,7.91 18.53,12.73 l -72.24,131.08 z m 217.83,-161.35 c -16.88,-5.82 -31.83,-12.54 -44.85,-20.14 -13.04,-7.61 -23.28,-16.7 -30.74,-27.3 -7.47,-10.6 -11.85,-22.86 -13.13,-36.74 -1.27,-13.9 1.27,-30.09 7.66,-48.6 6.39,-18.48 14.37,-32.8 23.95,-42.95 9.58,-10.14 20.57,-17.08 33,-20.82 12.41,-3.73 26.09,-4.58 41.04,-2.51 14.94,2.05 30.85,6 47.72,11.82 l 140.09,48.37 c -0.83,4.64 -1.86,9.13 -3.11,13.49 -1.25,4.34 -2.58,8.61 -4.03,12.77 -1.35,3.93 -2.86,7.94 -4.54,12.02 -1.66,4.07 -3.63,8.3 -5.92,12.69 l -129.34,-44.65 c -14.1,-4.87 -26.36,-8.53 -36.77,-10.97 -10.42,-2.42 -19.46,-3.21 -27.12,-2.36 -7.67,0.84 -14.02,3.49 -19.06,7.97 -5.03,4.47 -9.11,11.21 -12.23,20.22 -3.1,9.02 -4.08,16.9 -2.92,23.63 1.17,6.75 4.51,12.82 10.01,18.22 5.52,5.39 13.13,10.35 22.82,14.86 9.69,4.5 21.6,9.2 35.7,14.06 l 129.33,44.67 c -0.82,4.63 -1.84,9.06 -3.04,13.3 -1.21,4.25 -2.49,8.33 -3.84,12.26 -1.52,4.39 -3.12,8.63 -4.78,12.7 -1.67,4.09 -3.61,8.22 -5.82,12.36 z m -18.32,-303.8 c -0.46,-8.42 -0.22,-16.52 0.72,-24.31 0.88,-7.27 2.52,-14.71 4.91,-22.3 l 180.89,16.66 -119.67,-64.7 c -0.31,-3.49 -0.41,-6.83 -0.27,-10.01 0.14,-3.18 0.4,-6.36 0.78,-9.51 0.44,-3.64 1.05,-7.27 1.87,-10.86 0.8,-3.6 1.65,-7.06 2.54,-10.41 l 129.52,-38.31 -176.93,-28.01 c -0.5,-8.19 -0.24,-16.41 0.75,-24.67 1.01,-8.24 2.79,-16.9 5.36,-25.95 l 260.36,43.99 c 0.43,8.67 0.08,17.63 -1.03,26.85 -1.11,9.22 -2.85,17.52 -5.22,24.87 l -157.52,43.8 142.8,78.2 c 0.34,9.41 -0.06,18.84 -1.2,28.31 -1.09,8.98 -2.94,18.23 -5.57,27.77 z m 16.83,-570.16 c -3.54,-7.66 -6.32,-15.27 -8.31,-22.84 -1.87,-7.1 -3.1,-14.61 -3.68,-22.56 l 174.26,-51.31 -135.1,-15.93 c -1.58,-3.12 -2.9,-6.2 -3.94,-9.2 -1.05,-3.01 -1.98,-6.06 -2.79,-9.13 -0.94,-3.55 -1.7,-7.14 -2.28,-10.79 -0.58,-3.64 -1.07,-7.16 -1.47,-10.6 l 106.22,-83.43 -174.78,39.3 c -3.47,-7.43 -6.27,-15.17 -8.4,-23.2 -2.12,-8.04 -3.65,-16.74 -4.61,-26.1 l 258.2,-55.26 c 3.61,7.91 6.59,16.35 8.97,25.34 2.37,8.98 3.81,17.32 4.32,25.03 l -130.21,98.87 161.58,19.95 c 3.79,8.62 6.9,17.53 9.33,26.75 2.31,8.75 4.01,18.04 5.08,27.87 z m -86.52,-308.78 c -5.28,-7.19 -9.95,-14.83 -14.03,-22.91 -3.63,-7.21 -6.78,-15.08 -9.43,-23.6 l 40.38,-37.22 -39.33,-77.95 -53.77,10.7 c -5.28,-7.19 -10,-14.94 -14.19,-23.24 -4.3,-8.52 -8.05,-17.58 -11.25,-27.19 l 272.64,-45.12 c 3.2,4.69 6.01,9.03 8.43,13.01 2.41,3.99 4.73,8.15 6.93,12.52 2.54,5.02 4.69,9.69 6.45,14.01 1.77,4.31 3.48,8.92 5.14,13.84 z m 50.93,-114.85 84.53,-78.39 -112.62,22.71 z m -189.83,-142.79 c -6.39,-6.56 -12.19,-13.55 -17.4,-20.96 -4.91,-7.01 -9.44,-14.72 -13.58,-23.18 l 215.85,-151.56 c 6.55,6.781 12.35,13.75 17.4,20.96 5.06,7.2 9.59,14.918 13.59,23.18 z m -81.3,-117.482 c -6.21,-4.566 -12.05,-9.84 -17.52,-15.777 -5.44,-5.941 -10.29,-12.289 -14.51,-19.039 l 123.38,-113.5 -192.93,37.91 c -6.53,-4.961 -12.13,-9.941 -16.76,-14.98 -4.3,-4.692 -8.56,-10.391 -12.78,-17.153 l 194.11,-178.57 c 5.89,4.242 11.4,9.141 16.53,14.723 5.45,5.937 10.63,12.636 15.5,20.117 l -123.64,113.73 192.69,-38.668 c 6.38,4.77 12.05,9.84 17.02,15.25 4.64,5.039 8.98,10.84 13.03,17.41 z M 2718.92,803.578 2575.77,692.48 c 3.34,-6.699 7.49,-13.242 12.44,-19.609 4.64,-5.992 9.8,-11.441 15.46,-16.32 l 82.29,63.879 44.49,-236.211 5.02,-1.68 139.67,108.422 c -3.34,6.699 -7.48,13.238 -12.43,19.609 -4.66,6 -9.79,11.442 -15.46,16.328 l -79.98,-62.089 -44.07,237.461 -4.28,1.308"/></g></g></svg>
